<svg xmlns="http://www.w3.org/2000/svg" id="Layer_1" x="0" y="0" version="1.1" viewBox="0 0 59 56" xml:space="preserve"><style>.st2{fill-rule:evenodd;clip-rule:evenodd;fill:#fff}</style><path fill="#236133" fill-rule="evenodd" d="M11.1 44.2s4.7-6.6 7-6.8c2.3-.2 9.4 0 9.4 0s2.5-.5 4.6-1.8c3-1.9 5.7-5.5 7.7-3 2.5 2.8-3.8 7.9-5.3 9.4s7.7.8 10 .1c2.4-.7 13.4-9.4 14.3-3-1.4 2.7-17.9 13.8-26.9 13.8H11.2l-.1-8.7z" clip-rule="evenodd"/><g filter="url(#Adobe_OpacityMaskFilter)"><path id="a_1_" d="M0 55.9h58.8V0H0z" class="st2"/></g><path fill="#236133" fill-rule="evenodd" d="M0 55.9h10v-15H0z" clip-rule="evenodd" mask="url(#b_1_)"/><g filter="url(#Adobe_OpacityMaskFilter_1_)"><path id="a_2_" d="M0 55.9h58.8V0H0z" class="st2"/></g><path fill="#63a541" fill-rule="evenodd" d="M40.2 1.8L30.4 0l-1.8 10s-3 16.6 13.4 19.6l6.6 1.2s.3-6.2-8.4-17.9c0 0 10.3 6.8 11.7 18.5l1.8-10c0-.1 2.9-16.7-13.5-19.6" clip-rule="evenodd" mask="url(#b_2_)"/></svg>