<svg xmlns="http://www.w3.org/2000/svg" viewBox="0 0 284.52 100.68"><defs><style>.cls-1{fill:#00afaa}.cls-3{fill:#fc4501}</style></defs><g><path d="M243.37 46.47h5.45v12.85h-5.45z" class="cls-1" transform="rotate(25.15 246.115 52.914)"/><path fill="gold" d="M57.09 33.97h6.22v14.65h-6.22z" transform="rotate(25.15 60.203 41.301)"/><path d="M52.64 2.42h12.52v5.17H52.64z" class="cls-3" transform="rotate(25.15 58.905 5.002)"/><path d="M115.3 8.26h5.86v13.81h-5.86z" class="cls-1" transform="rotate(25.15 118.23 15.157)"/><path fill="#000f9f" stroke="#a0e2ba" stroke-miterlimit="10" stroke-width="1.54" d="M216.824 88.18l7.812 3.667-3.668 7.812-7.812-3.668z"/><path d="M195.47 33.63h5.87V44.8h-5.87z" class="cls-3" transform="rotate(-154.85 198.402 39.214)"/><path fill="#000f9f" stroke="#a0e2ba" stroke-miterlimit="10" stroke-width="1.22" d="M80.795 58.243l15.787 7.412-2.907 6.192-15.787-7.412z"/><circle cx="147.45" cy="22.74" r="4.94" fill="none" stroke="gold" stroke-miterlimit="10" stroke-width=".84"/><circle cx="129.14" cy="52.9" r="5.35" fill="#5700c9"/><circle cx="153.22" cy="84.97" r="6.43" fill="none" stroke="#fc4501" stroke-miterlimit="10" stroke-width="1.1"/><path fill="none" stroke="#a0e2ba" stroke-miterlimit="10" stroke-width="2.6" d="M1.08 47.25c54.8-81.11 255.55 61 282.86 47.53"/></g></svg>